<svg id="Layer_1" data-name="Layer 1" xmlns="http://www.w3.org/2000/svg" viewBox="0 0 256.3 256.3"><defs><style>.cls-1{fill:#fff;}</style></defs><title>ins</title><g id="ins"><path class="cls-1" d="M22.1,128.2V75.7C22.2,49,40.5,27.3,66.8,22.8a82.41,82.41,0,0,1,11.1-.7H180.8a53,53,0,0,1,53.3,52.7h0V181a53,53,0,0,1-52.9,53.1H74.8a53,53,0,0,1-52.7-52.8ZM127.9,219h52.8c21.8,0,38.3-16.6,38.3-38.3V75.7c0-21.8-16.6-38.3-38.3-38.3H92.2c-7.5,0-15-.3-22.4.5-18.1,1.9-32.4,18-32.4,36.4-.1,36-.1,71.9,0,107.9a35.27,35.27,0,0,0,6.9,21C52,213.8,62.5,219,75.5,219.1,92.9,219.1,110.4,219,127.9,219Z"/><path class="cls-1" d="M128.2,181.2c-29,.1-53-23.8-53.1-52.6A53.16,53.16,0,0,1,128,75.2h.2c28.8,0,52.9,23.8,53,52.5A53.33,53.33,0,0,1,128.2,181.2ZM128,90.3a37.9,37.9,0,1,0,37.9,37.9h0A38.07,38.07,0,0,0,128,90.3Z"/><path class="cls-1" d="M188.7,52.4a15.11,15.11,0,1,1-.18,0Z"/></g></svg>