<svg id="Layer_1" data-name="Layer 1" xmlns="http://www.w3.org/2000/svg" viewBox="0 0 256.3 256.3"><defs><style>.cls-1{fill:#469ddf;}</style></defs><title>Artboard 1</title><g id="ins"><path class="cls-1" d="M22.1,128.2V75.7C22.2,49,40.5,27.3,66.8,22.8a81.69,81.69,0,0,1,11.1-.7H180.8a53,53,0,0,1,53.3,53.1V181A53,53,0,0,1,181,234.1H74.8a53,53,0,0,1-52.7-52.8V128.2ZM127.9,219h52.8c21.8,0,38.3-16.6,38.3-38.3V75.7c0-21.8-16.6-38.3-38.3-38.3H92.2c-7.5,0-15-.3-22.4.5-18.1,1.9-32.4,18-32.4,36.4-.1,36-.1,71.9,0,107.9a35.23,35.23,0,0,0,6.9,21C52,213.8,62.5,219,75.5,219.1,92.9,219.1,110.4,219,127.9,219Z"/><path class="cls-1" d="M128.2,181.2c-29,.1-53-23.8-53.1-52.6a53.13,53.13,0,0,1,53.1-53.4c28.8,0,52.9,23.8,53,52.5A53.33,53.33,0,0,1,128.2,181.2ZM128,90.3a37.9,37.9,0,1,0,37.9,37.9A38,38,0,0,0,128,90.3Z"/><path class="cls-1" d="M188.7,52.4a15.15,15.15,0,1,1-15.2,15.2A15.28,15.28,0,0,1,188.7,52.4Z"/></g></svg>